#!OML:ASF G:\JayActor3\Patient Classification 1\Patient 1\Session 5\male.ASF
:FULLY-SPECIFIED
:DEGREES
1524
root -9.91708 16.8576 -9.99559 -176.941 -64.4012 170.94
lowerback 2.98988 -1.17617 -1.48797
upperback 1.01645 -1.67023 -2.12106
thorax -0.654727 -0.851639 -1.28082
lowerneck -2.78978 0.210373 1.64678
upperneck 7.98439 -0.0701824 1.97133
head 3.03433 0.0398167 0.346587
rclavicle 3.85145e-014 9.93923e-017
rhumerus -41.5693 -19.5229 -77.7391
rradius 17.519
rwrist 17.6904
rhand -21.492 -8.9097
rfingers 7.12502
rthumb 4.89925 -38.8331
lclavicle 3.85145e-014 9.93923e-017
lhumerus -41.7044 29.5664 65.3446
lradius 5.26268
lwrist -6.64321
lhand -21.1327 13.2099
lfingers 7.12502
lthumb 5.24618 43.1249
rfemur -20.501 0.882708 22.4599
rtibia 28.6564
rfoot -20.189 -9.83597
rtoes -0.019807
lfemur 13.1523 14.9249 -20.6549
ltibia 43.1225
lfoot 12.8376 3.74632
ltoes -16.1132
1525
root -10.0514 16.8891 -10.0654 -178.672 -64.6647 172.521
lowerback 3.34165 -1.2221 -0.633122
upperback 1.02133 -1.70525 -1.94966
thorax -0.866407 -0.866339 -1.57424
lowerneck -2.73425 0.16001 1.6223
upperneck 8.19051 -0.144766 1.95805
head 3.09448 0.00119573 0.344464
rclavicle -3.13987e-014 -1.71949e-014
rhumerus -41.5704 -19.2135 -77.9901
rradius 17.671
rwrist 17.356
rhand -21.4876 -8.85196
rfingers 7.12502
rthumb 4.90357 -38.7752
lclavicle -3.13987e-014 -1.71949e-014
lhumerus -41.6538 29.3667 65.4495
lradius 5.15788
lwrist -6.58967
lhand -21.015 13.2211
lfingers 7.12502
lthumb 5.35984 43.1333
rfemur -19.0302 0.304832 23.2373
rtibia 27.6046
rfoot -19.212 -9.5487
rtoes 0.842752
lfemur 10.8809 14.6594 -19.6479
ltibia 47.7513
lfoot 12.9947 3.73339
ltoes -13.6986
1526
root -10.1808 16.9179 -10.1342 -180.47 -64.9169 174.151
lowerback 3.73618 -1.26709 0.191219
upperback 1.03991 -1.73398 -1.76375
thorax -1.08704 -0.879989 -1.83534
lowerneck -2.66653 0.0982757 1.59442
upperneck 8.34521 -0.232479 1.95075
head 3.13488 -0.0441669 0.34418
rclavicle -4.69008e-016 0
rhumerus -41.553 -18.9744 -78.1722
rradius 17.7671
rwrist 17.1612
rhand -21.5226 -8.78074
rfingers 7.12502
rthumb 4.86974 -38.7048
lclavicle -4.69008e-016 0
lhumerus -41.5529 29.1781 65.6073
lradius 5.0659
lwrist -6.51948
lhand -21.0199 13.275
lfingers 7.12502
lthumb 5.35511 43.1874
rfemur -17.5806 -0.291629 24.0193
rtibia 26.5585
rfoot -18.1311 -9.41429
rtoes 1.80288
lfemur 8.58071 14.3823 -18.6269
ltibia 52.3428
lfoot 12.5085 3.46635
ltoes -12.0349
1527
root -10.3053 16.9436 -10.202 -182.336 -65.1286 175.828
lowerback 4.15363 -1.30274 0.985867
upperback 1.08758 -1.74478 -1.56629
thorax -1.28905 -0.886496 -2.06878
lowerneck -2.59518 0.0284044 1.56446
upperneck 8.44265 -0.329096 1.95316
head 3.15507 -0.0938393 0.346913
rclavicle -8.53842e-015 9.74045e-015
rhumerus -41.4908 -18.8249 -78.288
rradius 17.8034
rwrist 17.0959
rhand -21.5777 -8.71602
rfingers 7.12502
rthumb 4.81654 -38.6413
lclavicle -8.53842e-015 9.74045e-015
lhumerus -41.3979 29.0047 65.8175
lradius 5.0038
lwrist -6.42308
lhand -21.1479 13.3574
lfingers 7.12502
lthumb 5.23155 43.2728
rfemur -16.1561 -0.909632 24.8118
rtibia 25.5293
rfoot -16.9377 -9.36376
rtoes 2.76661
lfemur 6.25898 14.13 -17.5754
ltibia 56.9045
lfoot 11.4288 2.86752
ltoes -11.1757
1528
root -10.4242 16.9656 -10.2688 -184.23 -65.2735 177.521
lowerback 4.57702 -1.32333 1.73995
upperback 1.16568 -1.73124 -1.36325
thorax -1.46044 -0.882114 -2.27554
lowerneck -2.53631 -0.0461684 1.54191
upperneck 8.49368 -0.430963 1.96275
head 3.16178 -0.14555 0.350413
rclavicle -2.50282e-014 -5.66536e-015
rhumerus -41.3681 -18.7572 -78.3591
rradius 17.7865
rwrist 17.1287
rhand -21.6361 -8.68313
rfingers 7.12502
rthumb 4.76012 -38.6097
lclavicle -2.50282e-014 -5.66536e-015
lhumerus -41.1953 28.8501 66.0663
lradius 4.9804
lwrist -6.2953
lhand -21.3908 13.4316
lfingers 7.12502
lthumb 4.99705 43.3527
rfemur -14.7717 -1.48763 25.6086
rtibia 24.5149
rfoot -15.6818 -9.35259
rtoes 3.74738
lfemur 3.89046 13.9359 -16.4958
ltibia 61.4375
lfoot 9.84753 1.91087
ltoes -11.0383
1529
root -10.5379 16.9844 -10.3348 -186.095 -65.3445 179.191
lowerback 4.97661 -1.32638 2.44755
upperback 1.27271 -1.692 -1.16062
thorax -1.58528 -0.865385 -2.45943
lowerneck -2.49157 -0.122254 1.51952
upperneck 8.50008 -0.534539 1.99215
head 3.156 -0.197307 0.36018
rclavicle 4.73014e-014 1.98785e-015
rhumerus -41.182 -18.7659 -78.3978
rradius 17.7179
rwrist 17.2641
rhand -21.7074 -8.65874
rfingers 7.12502
rthumb 4.69126 -38.5868
lclavicle 4.73014e-014 1.98785e-015
lhumerus -40.955 28.7124 66.3432
lradius 5.0088
lwrist -6.13356
lhand -21.7229 13.4795
lfingers 7.12502
lthumb 4.67637 43.4079
rfemur -13.4313 -1.96051 26.4014
rtibia 23.5034
rfoot -14.447 -9.38451
rtoes 4.7539
lfemur 1.44797 13.8236 -15.3953
ltibia 65.9473
lfoot 7.98143 0.658103
ltoes -11.1504
1530
root -10.6475 17.003 -10.4001 -187.83 -65.3558 180.736
lowerback 5.33543 -1.31599 3.08028
upperback 1.40647 -1.63652 -0.97263
thorax -1.65599 -0.840245 -2.61902
lowerneck -2.46746 -0.194591 1.50119
upperneck 8.47729 -0.633419 2.03736
head 3.14424 -0.245857 0.374503
rclavicle 7.92996e-014 4.96962e-015
rhumerus -40.9342 -18.8197 -78.4326
rradius 17.6141
rwrist 17.4665
rhand -21.7868 -8.64798
rfingers 7.12502
rthumb 4.61466 -38.5777
lclavicle 7.92996e-014 4.96962e-015
lhumerus -40.6846 28.5934 66.6327
lradius 5.08088
lwrist -5.95432
lhand -22.0985 13.4847
lfingers 7.12502
lthumb 4.31369 43.4208
rfemur -12.1178 -2.28889 27.1465
rtibia 22.4813
rfoot -13.3113 -9.49169
rtoes 5.77214
lfemur -1.06344 13.8039 -14.3213
ltibia 70.4151
lfoot 5.95323 -0.732205
ltoes -11.452
1531
root -10.7525 17.0221 -10.4645 -189.404 -65.3178 182.15
lowerback 5.6475 -1.29352 3.64548
upperback 1.54964 -1.56786 -0.802458
thorax -1.68734 -0.807948 -2.76146
lowerneck -2.4578 -0.260798 1.48518
upperneck 8.43323 -0.725007 2.10234
head 3.1281 -0.289939 0.395053
rclavicle -4.38569e-015 4.07509e-015
rhumerus -40.6418 -18.8965 -78.4821
rradius 17.4958
rwrist 17.7052
rhand -21.859 -8.65191
rfingers 7.12502
rthumb 4.54492 -38.5831
lclavicle -4.38569e-015 4.07509e-015
lhumerus -40.4 28.4834 66.9193
lradius 5.19265
lwrist -5.76419
lhand -22.4075 13.4781
lfingers 7.12502
lthumb 4.01525 43.42
rfemur -10.8432 -2.41713 27.8472
rtibia 21.4355
rfoot -12.3091 -9.73942
rtoes 6.82014
lfemur -3.67661 13.8994 -13.2788
ltibia 74.8481
lfoot 3.86077 -2.10811
ltoes -11.811
1532
root -10.854 17.0426 -10.528 -190.75 -65.2723 183.361
lowerback 5.91174 -1.26826 4.12283
upperback 1.69474 -1.50102 -0.663261
thorax -1.68749 -0.775748 -2.88763
lowerneck -2.45103 -0.319409 1.46704
upperneck 8.37328 -0.807721 2.19222
head 3.10732 -0.328925 0.424319
rclavicle -1.0166e-014 -2.18663e-015
rhumerus -40.3245 -18.969 -78.565
rradius 17.3867
rwrist 17.9397
rhand -21.9072 -8.6857
rfingers 7.12502
rthumb 4.49836 -38.6179
lclavicle -1.0166e-014 -2.18663e-015
lhumerus -40.1129 28.3747 67.1921
lradius 5.33307
lwrist -5.57482
lhand -22.6088 13.4534
lfingers 7.12502
lthumb 3.82084 43.3989
rfemur -9.59833 -2.38295 28.4649
rtibia 20.3598
rfoot -11.4287 -10.1357
rtoes 7.80694
lfemur -6.38336 14.0968 -12.3201
ltibia 79.2382
lfoot 1.77454 -3.31626
ltoes -12.276
1533
root -10.9519 17.0647 -10.5908 -191.84 -65.249 184.347
lowerback 6.13774 -1.24487 4.49825
upperback 1.82639 -1.44302 -0.55752
thorax -1.67834 -0.747448 -2.99118
lowerneck -2.43752 -0.372719 1.44749
upperneck 8.30752 -0.884349 2.29855
head 3.08353 -0.364596 0.459355
rclavicle -3.40481e-014 2.83268e-014
rhumerus -40.007 -19.0228 -78.6805
rradius 17.2973
rwrist 18.15
rhand -21.9392 -8.71991
rfingers 7.12502
rthumb 4.46751 -38.6528
lclavicle -3.40481e-014 2.83268e-014
lhumerus -39.8375 28.2568 67.4444
lradius 5.49233
lwrist -5.3949
lhand -22.661 13.4321
lfingers 7.12502
lthumb 3.77046 43.3785
rfemur -8.39799 -2.2221 28.9858
rtibia 19.2589
rfoot -10.6102 -10.6752
rtoes 8.64063
lfemur -9.20212 14.3871 -11.4708
ltibia 83.5915
lfoot -0.225654 -4.27724
ltoes -12.9531
1534
root -11.0459 17.0887 -10.653 -192.656 -65.2787 185.085
lowerback 6.34382 -1.23017 4.74839
upperback 1.93605 -1.4037 -0.486193
thorax -1.67986 -0.728426 -3.05866
lowerneck -2.41817 -0.421357 1.42894
upperneck 8.24677 -0.955737 2.41348
head 3.06055 -0.397534 0.497196
rclavicle 2.68887e-014 -5.66536e-015
rhumerus -39.7087 -19.0393 -78.8285
rradius 17.2393
rwrist 18.3117
rhand -21.963 -8.73943
rfingers 7.12502
rthumb 4.44454 -38.6728
lclavicle 2.68887e-014 -5.66536e-015
lhumerus -39.5784 28.1305 67.6753
lradius 5.65296
lwrist -5.22851
lhand -22.5655 13.4158
lfingers 7.12502
lthumb 3.86271 43.3606
rfemur -7.24629 -1.97942 29.393
rtibia 18.1372
rfoot -9.81417 -11.3321
rtoes 9.37256
lfemur -12.1421 14.7509 -10.7561
ltibia 87.9062
lfoot -2.08392 -4.96219
ltoes -13.8096
1535
root -11.1366 17.1142 -10.7149 -193.265 -65.3792 185.627
lowerback 6.54246 -1.22925 4.88577
upperback 2.02644 -1.38883 -0.439554
thorax -1.69721 -0.721824 -3.08626
lowerneck -2.38668 -0.468301 1.41184
upperneck 8.19005 -1.02492 2.52748
head 3.0368 -0.429615 0.534582
rclavicle -2.55531e-014 1.68967e-015
rhumerus -39.4427 -19.0188 -78.9942
rradius 17.2183
rwrist 18.4109
rhand -21.9855 -8.73369
rfingers 7.12502
rthumb 4.42278 -38.6675
lclavicle -2.55531e-014 1.68967e-015
lhumerus -39.3397 27.9966 67.8924
lradius 5.81281
lwrist -5.07369
lhand -22.3588 13.398
lfingers 7.12502
lthumb 4.06227 43.339
rfemur -6.12466 -1.72173 29.7038
rtibia 16.9924
rfoot -9.02102 -12.0618
rtoes 10.0973
lfemur -15.1798 15.171 -10.1511
ltibia 92.1776
lfoot -3.76889 -5.43503
ltoes -14.7618
1536
root -11.224 17.1407 -10.7765 -193.755 -65.5533 186.051
lowerback 6.75818 -1.24648 4.93471
upperback 2.09958 -1.40185 -0.405036
thorax -1.74277 -0.729817 -3.07383
lowerneck -2.3498 -0.51502 1.39984
upperneck 8.14373 -1.09371 2.63189
head 3.01561 -0.461772 0.568035
rclavicle -4.61211e-014 6.16232e-015
rhumerus -39.2131 -18.9571 -79.17
rradius 17.2394
rwrist 18.4168
rhand -21.9994 -8.71342
rfingers 7.12502
rthumb 4.40934 -38.6475
lclavicle -4.61211e-014 6.16232e-015
lhumerus -39.1181 27.8616 68.1022
lradius 5.96008
lwrist -4.92669
lhand -22.0886 13.3703
lfingers 7.12502
lthumb 4.32319 43.3062
rfemur -5.0144 -1.4882 29.9511
rtibia 15.8118
rfoot -8.20392 -12.8389
rtoes 10.8405
lfemur -18.2981 15.6361 -9.61402
ltibia 96.4016
lfoot -5.3011 -5.79069
ltoes -15.8313
1537
root -11.3083 17.1673 -10.8375 -194.194 -65.7972 186.423
lowerback 7.00244 -1.28236 4.92344
upperback 2.15545 -1.44121 -0.373853
thorax -1.82316 -0.751891 -3.02782
lowerneck -2.30268 -0.564235 1.38859
upperneck 8.1041 -1.16558 2.73018
head 2.99487 -0.495822 0.59932
rclavicle 9.05091e-015 1.74931e-014
rhumerus -39.0306 -18.8686 -79.3363
rradius 17.2971
rwrist 18.3326
rhand -22.0143 -8.67979
rfingers 7.12502
rthumb 4.39496 -38.6142
lclavicle 9.05091e-015 1.74931e-014
lhumerus -38.914 27.7245 68.3105
lradius 6.09279
lwrist -4.78639
lhand -21.806 13.3237
lfingers 7.12502
lthumb 4.59612 43.2538
rfemur -3.89486 -1.299 30.1624
rtibia 14.572
rfoot -7.36833 -13.6358
rtoes 11.5966
lfemur -21.4839 16.1539 -9.1028
ltibia 100.575
lfoot -6.67669 -6.17687
ltoes -16.7818
1538
root -11.3906 17.1933 -10.8974 -194.655 -66.0968 186.813
lowerback 7.27348 -1.33455 4.89111
upperback 2.20175 -1.50185 -0.33826
thorax -1.92946 -0.785282 -2.96255
lowerneck -2.24414 -0.618203 1.38015
upperneck 8.06261 -1.24304 2.8208
head 2.97143 -0.533035 0.627488
rclavicle -9.93923e-016 -1.39149e-015
rhumerus -38.8924 -18.7598 -79.4847
rradius 17.3863
rwrist 18.1478
rhand -22.034 -8.65248
rfingers 7.12502
rthumb 4.3759 -38.5873
lclavicle -9.93923e-016 -1.39149e-015
lhumerus -38.7137 27.5884 68.5305
lradius 6.20218
lwrist -4.66036
lhand -21.5681 13.2553
lfingers 7.12502
lthumb 4.82584 43.1803
rfemur -2.73656 -1.16647 30.3659
rtibia 13.2472
rfoot -6.53317 -14.4133
rtoes 12.3229
lfemur -24.7056 16.74 -8.5723
ltibia 104.684
lfoot -7.93824 -6.70321
ltoes -17.5754
